# xmcd
#
# Track frame offsets:
#	150
#	19306
#	37845
#	58286
#	78030
#	93462
#	113899
#	138993
#	158511
#	169624
#	184924
#	198629
#	214162
#	232719
#
# Disc length: 3348 seconds
#
# Revision: 1
# Processed by: cddbd v1.5.2PL0 Copyright (c) Steve Scherf et al.
# Submitted via: audiograbber 1.83.01
#
DISCID=b10d120e
DTITLE=Jimmy Hall - Build Your Own Fire
DYEAR=2007
DGENRE=Blues
TTITLE0=Still Want To Be Your Man
TTITLE1=Salty
TTITLE2=Here I Am
TTITLE3=Poor Old Me
TTITLE4=Coming After You
TTITLE5=Cover Me
TTITLE6=Build Your Own Fire
TTITLE7=It's All Wrong
TTITLE8=Watchdog
TTITLE9=What Will I Do Without You
TTITLE10=I Found A True Love
TTITLE11=Coming After You (Greg Martin Mix)
TTITLE12=Salty  (Greg Martin Mix)
TTITLE13=David Hood Interview On Eddie Hinton
EXTD=
EXTT0=
EXTT1=
EXTT2=
EXTT3=
EXTT4=
EXTT5=
EXTT6=
EXTT7=
EXTT8=
EXTT9=
EXTT10=
EXTT11=
EXTT12=
EXTT13=
PLAYORDER=
